<?xml version="1.0" encoding="UTF-8"?>
<svg id="Capa_1" data-name="Capa 1" xmlns="http://www.w3.org/2000/svg" viewBox="0 0 60.78 24.32">
  <defs>
    <style>
      .cls-1 {
        fill: #296c73;
      }

      .cls-2 {
        fill: #769bcf;
      }

      .cls-3 {
        fill: #236576;
      }
    </style>
  </defs>
  <rect class="cls-2" x="11.04" width="1.85" height="15.66"/>
  <rect class="cls-2" x="9.12" y="4.74" width="1.27" height="6.64"/>
  <rect class="cls-2" x="6.9" y="6.96" width="1.42" height="2.21"/>
  <rect class="cls-2" x="13.39" y="3.94" width="1.42" height="8.26"/>
  <rect class="cls-2" x="15.44" y="6.01" width="1.27" height="4.27"/>
  <rect class="cls-2" x="17.5" y="3.32" width="1.58" height="9.96"/>
  <rect class="cls-2" x="19.87" y="6.8" width="1.11" height="2.85"/>
  <g>
    <path class="cls-3" d="M33.1,8.86l.2.04-.7,2.26h-6.32v-.23h.31c.34,0,.59-.11.74-.34.08-.13.13-.43.13-.91v-5.38c0-.52-.06-.85-.17-.98-.16-.18-.39-.27-.7-.27h-.31v-.23h3.69v.23c-.43,0-.74.04-.91.12-.17.09-.29.19-.36.33-.06.13-.1.44-.1.94v5.24c0,.34.03.57.1.7.05.09.12.15.22.19.1.04.41.06.94.06h.6c.63,0,1.07-.05,1.32-.14.25-.09.48-.26.69-.5.21-.24.42-.62.63-1.13Z"/>
    <path class="cls-3" d="M37.07,10.35c-.57.45-.92.7-1.06.77-.22.1-.45.15-.69.15-.38,0-.69-.13-.94-.4-.25-.27-.37-.62-.37-1.05,0-.27.06-.51.18-.71.16-.28.45-.54.86-.79.41-.25,1.08-.54,2.03-.9v-.22c0-.56-.09-.95-.26-1.16-.17-.21-.43-.31-.76-.31-.25,0-.45.07-.6.21-.15.14-.23.3-.23.48v.36c.01.19-.04.33-.13.44-.09.1-.22.15-.37.15s-.27-.05-.36-.16c-.09-.11-.14-.25-.14-.44,0-.35.18-.68.53-.97s.85-.44,1.49-.44c.49,0,.89.08,1.2.25.24.13.41.33.52.6.07.18.11.54.11,1.08v1.91c0,.54,0,.87.03.99.02.12.05.2.1.24.05.04.1.06.16.06.06,0,.12-.01.17-.04.08-.05.25-.2.49-.45v.34c-.45.61-.88.92-1.29.92-.2,0-.35-.07-.47-.21-.12-.14-.18-.38-.18-.71ZM37.07,9.95v-2.14c-.61.25-1,.42-1.17.52-.32.18-.54.37-.68.57-.14.2-.2.41-.2.65,0,.3.09.54.26.73.17.19.37.29.6.29.3,0,.71-.2,1.2-.61Z"/>
    <path class="cls-3" d="M50.64,2.83v.23c-.29.05-.51.15-.66.28-.21.2-.4.51-.57.92l-2.85,7.09h-.22l-3.06-7.18c-.16-.37-.27-.59-.33-.68-.1-.13-.22-.23-.37-.3s-.34-.12-.59-.14v-.23h3.33v.23c-.38.04-.62.1-.73.2-.11.09-.17.22-.17.36,0,.2.09.52.28.96l2.08,4.89,1.93-4.82c.19-.48.28-.81.28-.99,0-.12-.06-.23-.17-.34-.12-.11-.31-.19-.59-.23-.02,0-.05-.01-.1-.02v-.23h2.51Z"/>
    <path class="cls-3" d="M52.28,5.37c.83,0,1.5.32,2.01.97.43.55.64,1.19.64,1.91,0,.5-.12,1.01-.36,1.53s-.56.91-.98,1.17-.88.39-1.39.39c-.83,0-1.49-.34-1.98-1.01-.41-.57-.62-1.21-.62-1.92,0-.52.13-1.03.38-1.54.25-.51.58-.89.99-1.13.41-.24.84-.37,1.3-.37ZM52.1,5.77c-.21,0-.43.06-.64.19-.21.13-.39.36-.52.68-.13.32-.2.74-.2,1.25,0,.82.16,1.53.48,2.12.32.59.74.89,1.26.89.39,0,.71-.16.96-.49.25-.33.38-.89.38-1.69,0-1-.21-1.79-.63-2.36-.28-.39-.65-.59-1.09-.59Z"/>
    <path class="cls-3" d="M60.54,9.44l-.07,1.73h-4.86v-.22l3.66-4.98h-1.81c-.39,0-.64.03-.76.08-.12.05-.22.15-.29.29-.11.2-.17.46-.19.76h-.24l.04-1.56h4.62v.23l-3.69,4.99h2.01c.42,0,.71-.04.86-.11.15-.07.27-.2.36-.38.06-.13.12-.41.16-.83h.2Z"/>
  </g>
  <g>
    <path class="cls-1" d="M2.53,15.97v3.4h1.62c.37,0,.64-.08.81-.24.17-.16.29-.48.34-.95h.24v2.93h-.24c0-.34-.05-.58-.13-.74-.09-.16-.2-.28-.35-.35-.15-.08-.37-.12-.67-.12h-1.62v2.72c0,.44.03.73.09.87.04.11.14.2.27.27.19.1.39.15.6.15h.32v.24H0v-.24h.31c.37,0,.63-.1.8-.31.1-.14.16-.46.16-.98v-5.59c0-.44-.03-.73-.09-.87-.04-.11-.13-.2-.27-.27-.19-.1-.39-.15-.6-.15h-.31v-.24h6.6l.09,1.9h-.23c-.11-.4-.25-.7-.4-.89-.15-.19-.34-.33-.56-.41-.22-.08-.56-.13-1.02-.13h-1.96Z"/>
    <path class="cls-1" d="M10.59,18.13c.91,0,1.64.34,2.19,1.01.47.57.7,1.23.7,1.98,0,.52-.13,1.05-.39,1.59s-.61.94-1.06,1.21c-.45.27-.95.41-1.51.41-.9,0-1.62-.35-2.15-1.05-.45-.59-.67-1.25-.67-1.99,0-.54.14-1.07.41-1.6.27-.53.63-.92,1.08-1.17.44-.25.92-.38,1.41-.38ZM10.38,18.54c-.23,0-.46.07-.7.2-.23.13-.42.37-.57.71-.14.34-.22.77-.22,1.3,0,.85.17,1.58.52,2.2.35.62.8.93,1.37.93.42,0,.77-.17,1.05-.51.27-.34.41-.93.41-1.75,0-1.04-.23-1.85-.69-2.45-.31-.41-.7-.61-1.18-.61Z"/>
    <path class="cls-1" d="M19.61,18.3v3.54c0,.68.02,1.09.05,1.24s.09.26.16.32.16.09.25.09c.14,0,.29-.04.46-.11l.09.22-1.79.72h-.29v-1.24c-.51.54-.91.89-1.18,1.03-.27.14-.56.21-.86.21-.34,0-.63-.09-.87-.28-.25-.19-.42-.43-.51-.73-.1-.3-.14-.72-.14-1.26v-2.61c0-.28-.03-.47-.09-.57-.06-.11-.15-.19-.27-.25-.12-.06-.34-.08-.65-.08v-.24h2.1v3.91c0,.54.1.9.29,1.07.19.17.43.26.7.26.19,0,.4-.06.64-.17.24-.11.52-.33.85-.66v-3.31c0-.33-.06-.56-.19-.67-.12-.12-.38-.18-.78-.19v-.24h2.04Z"/>
    <path class="cls-1" d="M22.8,19.37c.7-.83,1.37-1.24,2.01-1.24.33,0,.61.08.84.24.24.16.42.42.56.79.1.26.14.65.14,1.17v2.49c0,.37.03.62.09.75.05.11.13.19.23.25.11.06.3.09.59.09v.23h-2.96v-.23h.12c.28,0,.47-.04.59-.12.11-.08.19-.21.23-.37.02-.06.03-.26.03-.6v-2.39c0-.53-.07-.92-.21-1.16-.14-.24-.38-.36-.72-.36-.52,0-1.04.28-1.55.83v3.08c0,.4.02.64.07.73.06.12.14.21.25.27.11.06.32.09.65.09v.23h-2.96v-.23h.13c.31,0,.51-.08.62-.23.11-.15.16-.44.16-.86v-2.17c0-.7-.02-1.13-.05-1.28-.03-.15-.08-.26-.15-.31-.07-.06-.16-.08-.27-.08-.12,0-.27.03-.44.1l-.1-.23,1.81-.71h.28v1.24Z"/>
    <path class="cls-1" d="M31.99,23.49c-.29.3-.58.51-.86.64-.28.13-.58.19-.9.19-.65,0-1.23-.27-1.71-.8-.49-.53-.73-1.22-.73-2.06s.27-1.6.81-2.3c.54-.7,1.24-1.04,2.09-1.04.53,0,.96.16,1.31.49v-1.08c0-.67-.02-1.08-.05-1.23-.03-.15-.08-.26-.15-.31-.07-.06-.16-.08-.26-.08-.11,0-.26.03-.45.1l-.09-.22,1.79-.71h.29v6.76c0,.69.02,1.1.05,1.25s.09.26.16.32.16.09.25.09c.12,0,.27-.04.47-.11l.07.22-1.78.72h-.3v-.84ZM31.99,23.04v-3.01c-.03-.29-.1-.55-.24-.79s-.3-.42-.52-.54c-.22-.12-.43-.18-.63-.18-.38,0-.73.17-1.03.5-.4.44-.6,1.09-.6,1.94s.19,1.52.58,1.97c.38.46.81.69,1.28.69.4,0,.78-.19,1.15-.58Z"/>
    <path class="cls-1" d="M37.85,23.3c-.62.46-1,.73-1.16.8-.24.11-.49.16-.75.16-.41,0-.76-.14-1.02-.41s-.4-.64-.4-1.09c0-.28.07-.53.2-.74.18-.29.49-.56.93-.82.44-.26,1.18-.57,2.21-.93v-.23c0-.58-.09-.98-.28-1.2-.19-.22-.47-.33-.83-.33-.27,0-.49.07-.65.22-.17.14-.25.31-.25.5v.37c.01.2-.04.35-.14.45-.1.11-.24.16-.4.16s-.29-.06-.4-.17c-.1-.11-.15-.26-.15-.45,0-.37.19-.7.58-1.01.38-.31.92-.46,1.62-.46.53,0,.97.09,1.31.26.26.13.45.34.57.62.08.18.12.56.12,1.12v1.98c0,.56.01.9.03,1.02.02.13.06.21.11.25.05.04.11.06.17.06.07,0,.13-.01.18-.04.09-.06.27-.21.53-.47v.36c-.49.64-.96.96-1.4.96-.21,0-.38-.07-.51-.22-.13-.14-.19-.39-.2-.74ZM37.85,22.89v-2.23c-.66.26-1.08.44-1.28.54-.34.19-.59.38-.74.59s-.22.43-.22.67c0,.31.09.56.28.76.19.2.4.3.65.3.33,0,.77-.21,1.31-.64Z"/>
    <path class="cls-1" d="M42.15,16.38v1.92h1.4v.45h-1.4v3.79c0,.38.06.63.17.77.11.13.25.2.43.2.14,0,.28-.04.42-.13.14-.09.24-.22.31-.39h.26c-.15.42-.37.73-.65.94-.28.21-.57.32-.86.32-.2,0-.4-.05-.59-.16-.19-.11-.33-.26-.43-.47s-.14-.51-.14-.93v-3.93h-.95v-.21c.24-.09.49-.25.74-.48s.47-.49.67-.79c.1-.16.24-.46.42-.89h.2Z"/>
    <path class="cls-1" d="M46.2,18.13v4.7c0,.37.03.61.08.73s.14.21.24.27c.11.06.3.09.59.09v.23h-2.91v-.23c.29,0,.49-.03.59-.08.1-.06.18-.15.24-.27.06-.13.09-.37.09-.73v-2.25c0-.63-.02-1.04-.06-1.23-.03-.14-.08-.23-.14-.28-.07-.05-.15-.08-.27-.08-.12,0-.27.03-.44.1l-.09-.23,1.81-.71h.29ZM45.65,15.07c.18,0,.34.06.47.19.13.13.19.28.19.46s-.06.33-.19.46-.28.19-.47.19-.34-.06-.47-.19-.2-.28-.2-.46.06-.33.19-.46c.13-.13.29-.19.47-.19Z"/>
    <path class="cls-1" d="M50.78,18.13c.91,0,1.64.34,2.19,1.01.47.57.7,1.23.7,1.98,0,.52-.13,1.05-.39,1.59-.26.54-.61.94-1.06,1.21s-.95.41-1.51.41c-.9,0-1.62-.35-2.15-1.05-.45-.59-.67-1.25-.67-1.99,0-.54.14-1.07.41-1.6s.63-.92,1.08-1.17c.44-.25.92-.38,1.41-.38ZM50.58,18.54c-.23,0-.46.07-.7.2-.23.13-.42.37-.57.71-.14.34-.22.77-.22,1.3,0,.85.17,1.58.52,2.2.35.62.8.93,1.37.93.42,0,.77-.17,1.05-.51s.41-.93.41-1.75c0-1.04-.23-1.85-.69-2.45-.31-.41-.7-.61-1.18-.61Z"/>
    <path class="cls-1" d="M56.3,19.37c.7-.83,1.37-1.24,2.01-1.24.33,0,.61.08.84.24.24.16.42.42.56.79.1.26.14.65.14,1.17v2.49c0,.37.03.62.09.75.05.11.13.19.23.25.11.06.3.09.59.09v.23h-2.96v-.23h.12c.28,0,.47-.04.59-.12.11-.08.19-.21.23-.37.02-.06.03-.26.03-.6v-2.39c0-.53-.07-.92-.21-1.16s-.38-.36-.72-.36c-.52,0-1.04.28-1.55.83v3.08c0,.4.02.64.07.73.06.12.14.21.25.27.11.06.32.09.65.09v.23h-2.96v-.23h.13c.31,0,.51-.08.62-.23.11-.15.16-.44.16-.86v-2.17c0-.7-.02-1.13-.05-1.28-.03-.15-.08-.26-.15-.31s-.16-.08-.27-.08c-.12,0-.27.03-.44.1l-.1-.23,1.81-.71h.28v1.24Z"/>
  </g>
</svg>