<?xml version="1.0" encoding="UTF-8"?>
<svg id="Capa_1" data-name="Capa 1" xmlns="http://www.w3.org/2000/svg" viewBox="0 0 72.8 22.16">
  <defs>
    <style>
      .cls-1 {
        fill: #fff;
      }

      .cls-2 {
        fill: #010101;
      }
    </style>
  </defs>
  <g>
    <rect class="cls-1" x=".24" y=".24" width="72.31" height="21.68"/>
    <path class="cls-2" d="M72.8,22.16H0V0h72.8v22.16ZM.49,21.68h71.83V.49H.49v21.19Z"/>
  </g>
  <rect class="cls-2" x="2.1" y="1.94" width="34.3" height="18.12"/>
  <g>
    <path class="cls-1" d="M6.21,7.76h.91v5.63h3.01v.68h-3.92v-6.32Z"/>
    <path class="cls-1" d="M14.79,11.11h-2.74v2.28h3.05v.68h-3.96v-6.32h3.8v.68h-2.89v2h2.74v.68Z"/>
    <path class="cls-1" d="M21.65,13.79c-.41.13-1.21.35-2.16.35-1.07,0-1.94-.24-2.63-.83-.61-.53-.98-1.37-.98-2.35.01-1.88,1.45-3.26,3.81-3.26.82,0,1.45.16,1.76.29l-.22.67c-.38-.15-.85-.27-1.56-.27-1.71,0-2.83.96-2.83,2.54s1.08,2.55,2.72,2.55c.6,0,1-.07,1.21-.17v-1.88h-1.43v-.66h2.32v3.04Z"/>
    <path class="cls-1" d="M24.17,12.09l-.73,1.99h-.94l2.39-6.32h1.1l2.4,6.32h-.97l-.75-1.99h-2.5ZM26.48,11.45l-.69-1.82c-.16-.41-.26-.79-.37-1.15h-.02c-.1.37-.22.76-.36,1.14l-.69,1.83h2.12Z"/>
    <path class="cls-1" d="M29.43,7.76h.91v5.63h3.01v.68h-3.92v-6.32Z"/>
  </g>
  <g>
    <path class="cls-2" d="M43.75,6.43h-3.39v-1.32h8.25v1.32h-3.41v10.71h-1.46V6.43Z"/>
    <path class="cls-2" d="M49.85,5.27c.73-.16,1.77-.25,2.76-.25,1.54,0,2.53.3,3.22.98.56.54.88,1.36.88,2.28,0,1.59-.93,2.64-2.1,3.07v.05c.86.32,1.37,1.18,1.64,2.43.36,1.68.63,2.84.86,3.3h-1.49c-.18-.34-.43-1.37-.74-2.87-.33-1.66-.93-2.28-2.23-2.34h-1.36v5.21h-1.44V5.27ZM51.29,10.75h1.47c1.54,0,2.51-.91,2.51-2.28,0-1.55-1.04-2.23-2.56-2.25-.69,0-1.19.07-1.42.14v4.39Z"/>
    <path class="cls-2" d="M60.19,5.11v7.12c0,2.69,1.11,3.84,2.6,3.84,1.65,0,2.71-1.18,2.71-3.84v-7.12h1.45v7.01c0,3.69-1.8,5.21-4.22,5.21-2.28,0-4-1.41-4-5.14v-7.08h1.46Z"/>
  </g>
</svg>