<?xml version="1.0" encoding="UTF-8"?>
<svg id="Capa_1" data-name="Capa 1" xmlns="http://www.w3.org/2000/svg" viewBox="0 0 51.76 27.28">
  <defs>
    <style>
      .cls-1 {
        fill: #fafafa;
      }

      .cls-2 {
        fill: #0670a6;
      }

      .cls-3 {
        fill: #14172c;
      }

      .cls-4 {
        fill: #f8b626;
      }

      .cls-5 {
        fill: #b87a12;
      }
    </style>
  </defs>
  <path class="cls-3" d="M14.92,22.04c-.74-.26-1.07-.48-1.07-.93,0-.33.28-.73,1.01-.73.49,0,.85.14,1.02.23l.19-.51c-.24-.12-.64-.24-1.19-.24-1.04,0-1.74.56-1.74,1.31,0,.68.54,1.09,1.42,1.37.73.25,1.01.51,1.01.96,0,.49-.41.83-1.12.83-.48,0-.93-.14-1.24-.32l-.18.52c.29.17.85.31,1.37.31,1.27,0,1.88-.65,1.88-1.39s-.46-1.11-1.37-1.42Z"/>
  <path class="cls-3" d="M19.42,19.86c-1.44,0-2.49,1.01-2.49,2.54s1,2.46,2.42,2.46,2.49-.88,2.49-2.55c0-1.44-.95-2.45-2.42-2.45ZM19.38,24.35c-1.09,0-1.71-.93-1.71-1.96s.57-2.02,1.72-2.02,1.71,1.01,1.71,1.97c0,1.1-.62,2.01-1.72,2.01Z"/>
  <polygon class="cls-3" points="23.43 19.94 22.73 19.94 22.73 24.78 25.72 24.78 25.72 24.26 23.43 24.26 23.43 19.94"/>
  <path class="cls-3" d="M29.46,22.81c0,1.07-.51,1.54-1.31,1.54-.72,0-1.25-.46-1.25-1.54v-2.87h-.7v2.85c0,1.5.83,2.07,1.93,2.07,1.16,0,2.03-.61,2.03-2.1v-2.82h-.7v2.87Z"/>
  <polygon class="cls-3" points="30.75 20.47 32.39 20.47 32.39 24.78 33.09 24.78 33.09 20.47 34.73 20.47 34.73 19.94 30.75 19.94 30.75 20.47"/>
  <rect class="cls-3" x="35.33" y="19.94" width=".69" height="4.84"/>
  <path class="cls-3" d="M39.41,19.86c-1.43,0-2.49,1.01-2.49,2.54s1,2.46,2.42,2.46,2.49-.88,2.49-2.55c0-1.44-.95-2.45-2.42-2.45ZM39.37,24.35c-1.09,0-1.71-.93-1.71-1.96s.57-2.02,1.72-2.02,1.71,1.01,1.71,1.97c0,1.1-.62,2.01-1.72,2.01Z"/>
  <path class="cls-3" d="M46.1,21.97c0,.75.02,1.34.08,1.99h-.02c-.26-.49-.57-1-.97-1.57l-1.72-2.45h-.76v4.84h.65v-2.07c0-.8-.02-1.39-.05-2h.02c.27.52.63,1.07,1,1.61l1.71,2.46h.7v-4.84h-.65v2.03Z"/>
  <path class="cls-3" d="M49.58,22.04c-.74-.26-1.07-.48-1.07-.93,0-.33.28-.73,1.01-.73.49,0,.85.14,1.02.23l.19-.51c-.24-.12-.64-.24-1.19-.24-1.04,0-1.74.56-1.74,1.31,0,.68.54,1.09,1.42,1.37.73.25,1.01.51,1.01.96,0,.49-.41.83-1.12.83-.48,0-.93-.14-1.24-.32l-.18.52c.29.17.85.31,1.37.31,1.27,0,1.88-.65,1.88-1.39s-.46-1.11-1.37-1.42Z"/>
  <path class="cls-1" d="M3.42,9.78s.05.05.08.07v-.16s-.05.06-.08.09Z"/>
  <path class="cls-1" d="M5.44,10.9s-.01.08-.02.11c.27.08.55.13.84.16,0-.04.02-.08.02-.12-.29-.03-.57-.08-.85-.16Z"/>
  <polygon class="cls-2" points="20.63 5.13 24.95 5.13 24.95 1.87 12.94 1.87 12.94 5.13 17.02 5.13 17.14 5.13 17.14 5.25 17.14 16.32 20.52 16.32 20.52 5.25 20.52 5.13 20.63 5.13"/>
  <path class="cls-2" d="M28.27,16.42l.95-2.72h4.86l1.21,2.72-.05.02h7.39l-.05-.03,2.49-4.35,2.01,4.38,4.52-.11-4.63-7.52,4.18-6.71h-3.87l-2.35,3.79-2.21-3.79h-4.31c1.79,2.63,4.72,6.94,4.72,7.06s-2.48,3.5-4.56,6.33l-.06.09-.04-.1-5.25-13.37h-3.17c-.26.58-3.28,9.28-5.03,14.34h3.31l-.06-.02ZM31.59,6.45l1.67,4.27h-3.07l1.4-4.27Z"/>
  <polygon class="cls-4" points="24.97 15.85 11.66 15.85 11.66 19.12 51.76 19.12 51.76 15.85 47.16 15.85 47.12 15.86 47.12 15.85 25.09 15.85 24.97 15.85"/>
  <path class="cls-5" d="M3.5,9.7c.05-.06.09-.11.12-.17.07-.14.11-.28.11-.45s-.04-.32-.11-.46c-.03-.06-.07-.11-.12-.16-.14-.15-.34-.25-.63-.25-.23,0-.42.07-.57.18-.03.03-.06.05-.09.08-.18.18-.27.45-.27.73,0,.48.24.86.56,1.22.34-.18.63-.35.84-.54.03-.03.06-.05.08-.08.03-.03.05-.06.08-.09Z"/>
  <path class="cls-3" d="M6.7,12.12c-.25,0-.5.02-.75.06-.18.44-.4.81-.68,1.12.35.34.69.67,1.06,1.04.06,0,.13,0,.19,0,1.87,0,3.38,1.57,3.38,3.5s-1.51,3.5-3.38,3.5c-1.24,0-2.33-.69-2.91-1.72-.04-.07-.08-.15-.12-.22v-3.1c.03-.08.07-.15.12-.22.42-.74,1.09-1.3,1.9-1.56h-.16c-.21-.19-.41-.38-.69-.67-.33.28-.67.48-1.05.6-.04.01-.08.03-.12.04-.32.09-.65.14-1,.14-.03,0-.07,0-.1,0-.05,0-.09,0-.14,0-1.29-.09-2.03-.94-2.03-1.9,0-.12.01-.24.03-.35h-.25v14.92h3.5v-5.16s.08.06.12.1c.86.69,1.93,1.1,3.09,1.1,2.86,0,5.19-2.51,5.19-5.6s-2.33-5.6-5.19-5.6Z"/>
  <path class="cls-2" d="M1.67,10.72v-.03c-.38-.44-.62-.94-.62-1.42,0-.55.29-1.12.86-1.43.03-.02.07-.04.1-.05.26-.12.56-.19.92-.19.2,0,.39.03.56.08.04.01.08.02.12.04.22.08.58.31.79.64.32.51.3,1.25-.09,1.8-.45.63-1.25.69-1.38.7,0,0-.02,0-.02,0,.28.29.78.8.82.82,0,0,0,0,0,0,.04,0-.03-.48.02-.49,0,0,0,0,0,0,2.27.88,4.76.48,6.39-1.03,1.69-1.57,1.77-3.96,1.76-4.42-.01-.53-.06-1.95-1.06-3.27C9.78,1.04,8.11.37,6.76.36c-.5,0-.93.09-1.03.11-.78.17-1.5.52-2.11,1.02-.04.03-.08.06-.12.1V0H0v12.36h.25c.13-.74.68-1.27,1.42-1.64ZM3.61,4.87c.28-1.48,1.59-2.6,3.15-2.6,1.77,0,3.21,1.44,3.21,3.21s-1.44,3.21-3.21,3.21c-1.56,0-2.86-1.12-3.15-2.6-.04-.2-.06-.4-.06-.61s.02-.41.06-.61Z"/>
  <path class="cls-5" d="M2.77,11.93c-.21-.23-.42-.48-.67-.74-.2.12-.44.28-.63.51-.15.18-.38.5-.33.87.07.44.52.78.95.83.65.09,1.3-.44,1.28-.82-.01-.19-.22-.22-.61-.66Z"/>
</svg>