<?xml version="1.0" encoding="UTF-8"?>
<svg id="Capa_1" data-name="Capa 1" xmlns="http://www.w3.org/2000/svg" viewBox="0 0 71.84 24.36">
  <defs>
    <style>
      .cls-1 {
        fill: #6ec7de;
      }
    </style>
  </defs>
  <path class="cls-1" d="M11.93,0C5.35,0,0,5.46,0,12.18s5.35,12.18,11.93,12.18,11.93-5.47,11.93-12.18S18.51,0,11.93,0ZM11.86,8.59c-.56,0-1.02-.46-1.02-1.02s.46-1.02,1.02-1.02,1.02.46,1.02,1.02-.46,1.02-1.02,1.02ZM17.6,18.14l-2.28,1.34-.08.05v-.09s.07-3.25.07-3.25h.01c.18-.18.36-.36.53-.54.32-.35.63-.68.83-1.05.22-.4.32-.89.31-1.42,0-.03,0-.05,0-.08.03,0,.05-.02.08-.03.8-.28,1.38-1.02,1.38-1.89,0-1.11-.94-2.01-2.09-2.01s-2.09.9-2.09,2.01c0,.89.6,1.64,1.43,1.9.04.01.08.02.11.03-.02.03-.04.06-.04.07.01.13.01.25,0,.37-.08.61-.5,1.02-.91,1.41-.41.39-.8.76-.83,1.32,0,.06,0,.11,0,.15v3.8s-.05.02-.08.04c-.44.2-.9.33-1.37.39-.03,0-.05,0-.08,0v-10.88s.05-.01.07-.02c.93-.3,1.6-1.17,1.6-2.2,0-1.27-1.04-2.31-2.31-2.31s-2.31,1.04-2.31,2.31c0,1.02.67,1.9,1.6,2.2.02,0,.05.02.07.02v10.85s-.05,0-.08-.01c-.47-.08-.93-.23-1.37-.46-.03-.01-.05-.03-.08-.04v-3.73c0-.05,0-.1,0-.15-.03-.55-.42-.92-.83-1.32-.41-.39-.83-.8-.91-1.41-.01-.11-.02-.23,0-.35,0,0,0-.05,0-.08.03,0,.05-.01.08-.02.83-.25,1.44-1.02,1.44-1.92,0-1.11-.92-2.01-2.05-2.01s-2.05.9-2.05,2.01c0,.84.53,1.56,1.28,1.86.02.01.05.02.08.03,0,.03,0,.05,0,.08-.02.54.09,1.03.31,1.44.2.37.51.7.83,1.05.17.18.35.36.53.53h.01s.07,3.21.07,3.21v.09s-.07-.04-.07-.04l-2.05-1.16c-1.48-.84-2.4-2.41-2.42-4.11l-.03-3.75c-.01-1.7.89-3.29,2.35-4.15l3.21-1.89c1.47-.87,3.3-.88,4.79-.04l3.24,1.84c1.48.84,2.4,2.41,2.42,4.11l.03,3.75c.01,1.7-.89,3.29-2.35,4.15ZM15.45,11.18c0-.5.41-.91.91-.91s.91.41.91.91-.41.91-.91.91-.91-.41-.91-.91ZM7.43,12.06c-.5,0-.91-.41-.91-.91s.41-.91.91-.91.91.41.91.91-.41.91-.91.91Z"/>
  <g>
    <g>
      <path class="cls-1" d="M51.99,6.61c-.16,0-.58.01-1.05.22-.31.14-.59.34-.82.6l-.05.05-.13-.59c-.02-.08-.08-.13-.16-.13h-.92c-.09,0-.17.07-.17.17v5.43c0,.09.07.17.17.17h1.11c.09,0,.17-.07.17-.17v-3.83h0c.18-.22.58-.59,1.16-.63.09,0,.85-.05,1.1.4.05.09.08.2.08.32v3.89c0,.09.07.17.17.17h1.03c.09,0,.17-.07.17-.17v-4.48s0-.02,0-.03c-.04-.27-.14-.51-.29-.72-.32-.43-.85-.65-1.56-.67Z"/>
      <path class="cls-1" d="M38.65,11.53c-.45.05-.76-.03-.94-.24-.15-.18-.16-.4-.16-.48-.02-.5-.01-1.87.03-3.81,0-.09-.07-.17-.17-.17h-1.11c-.09,0-.16.07-.17.16-.05,2.06-.06,3.7-.03,4.04.02.19.07.37.07.37,0,0,.08.23.22.44.15.23.56.65,1.12.82.75.22,1.62-.07,2.24-.75l.07-.07v.65c0,.09.07.17.17.17h1.04c.09,0,.17-.07.17-.16l.07-5.51c0-.09-.07-.16-.16-.17l-1.11-.06c-.09,0-.17.07-.17.16l-.04,3.97h0c-.18.21-.57.57-1.12.63Z"/>
      <path class="cls-1" d="M57.45,11.53c-.31-.08-.49-.3-.55-.39h0v-3.08c0-.09.07-.17.17-.17h1.26c.09,0,.17-.07.17-.17v-.73c0-.09-.07-.17-.17-.17h-1.26c-.09,0-.17-.07-.17-.17v-1.31c0-.1-.09-.18-.18-.17l-1.03.11c-.08,0-.15.08-.15.17v1.2c0,.09-.07.17-.17.17h-.58c-.09,0-.17.07-.17.17v.73c0,.09.07.17.17.17h.58c.09,0,.17.07.17.17v3.27s0,.02,0,.03c.05.32.18.59.37.79.54.59,1.61.68,2.65.23.08-.04.12-.13.09-.22l-.28-.65c-.04-.09-.15-.13-.23-.08-.16.09-.4.17-.68.1Z"/>
      <path class="cls-1" d="M32.02,12.79c.23.28.57.57,1.03.79.35.17.73.27,1.12.29.07,0,.14-.04.17-.1l.32-.79c.04-.09-.01-.19-.11-.22-.22-.06-.42-.15-.62-.25-.15-.08-.3-.17-.44-.27-.02-.02-.04-.03-.07-.05.02-.01.05-.03.07-.04,1.07-.71,1.78-2,1.78-3.46,0-2.24-1.67-4.05-3.72-4.05s-3.72,1.82-3.72,4.05,1.67,4.05,3.72,4.05c.11,0,.22,0,.32-.02,0,0,0,0,0,0,.05,0,.11.02.14.06,0,0,0,0,0,0ZM31.51,11.53c-1.15,0-2.09-1.26-2.09-2.8s.94-2.8,2.09-2.8,2.09,1.26,2.09,2.8-.94,2.8-2.09,2.8Z"/>
      <path class="cls-1" d="M47.33,11.34c0-.71,0-1.12,0-1.39,0-.34,0-.44,0-.58-.03-.95-.04-1.43-.22-1.72-.7-1.14-2.76-.92-3-.89-.61.08-.82.24-.89.3-.39.3-.52.75-.57,1.05-.01.09.05.18.14.19l.92.11c.08,0,.15-.04.17-.11.06-.17.18-.4.43-.55.16-.1.33-.14.5-.14.26,0,.51.1.68.22.41.28.6.81.47,1.33v.03s-2.08.08-2.08.08c-.15,0-.3.03-.45.07,0,0-.24.08-.44.22-.25.18-.74.7-.74,1.41,0,.85.65,1.48,1.27,1.71.82.31,1.8,0,2.38-.75l.04-.05.03.05c.05.09.32.55.88.66.32.06.6-.02.77-.09.06-.03.1-.09.1-.15v-.58c0-.09-.07-.17-.17-.17h-.05c-.09,0-.17-.07-.17-.17v-.1ZM45.96,10.9h0c-.11.19-.44.61-1.01.71-.12.02-.23.03-.33.03-.36,0-.63-.12-.77-.35-.19-.31-.12-.8.16-1.03.13-.11.29-.14.86-.16.36-.01.71-.01,1.06,0h.04v.81Z"/>
      <path class="cls-1" d="M70.19,6.84h-1.05c-.06,0-.11.03-.14.07l-.93,1.41c-.07.1-.22.1-.28,0l-.86-1.4s-.08-.08-.14-.08h-1.2c-.13,0-.21.15-.14.26l1.63,2.47v.02s-1.86,2.75-1.86,2.75c-.07.11,0,.26.14.26h1.12c.06,0,.11-.03.14-.07l1.25-1.85.03.05c.37.62.91,1.53,1.09,1.8.03.05.08.07.14.07h1.25c.13,0,.21-.15.14-.26l-1.8-2.72c-.04-.06-.04-.13,0-.19l1.62-2.34c.08-.11,0-.26-.14-.26Z"/>
      <path class="cls-1" d="M63.29,6.88l-1.13,3.64c-.05.15-.27.16-.32,0l-1.19-3.57c-.02-.07-.09-.11-.16-.11h-1.15c-.12,0-.2.12-.15.23l2.09,5.25c.16.42.1.87-.16,1.17-.32.38-.88.49-1.38.3-.1-.04-.22.04-.22.15l-.04.67c0,.07.04.14.11.17.33.11,1.01.27,1.72-.06.75-.34,1.26-1.08,1.34-1.94h0s2.1-5.8,2.1-5.8c.04-.11-.04-.22-.16-.22h-1.15c-.07,0-.14.05-.16.12Z"/>
    </g>
    <circle class="cls-1" cx="71.47" cy="12.27" r=".37"/>
  </g>
  <g>
    <path class="cls-1" d="M28.93,19.56v-2.72h-1.07v-.39h2.57v.39h-1.07v2.72h-.44Z"/>
    <path class="cls-1" d="M31.91,19.59c-.25,0-.47-.05-.66-.16-.19-.1-.34-.25-.44-.43-.11-.18-.16-.39-.16-.62s.05-.44.15-.62c.1-.18.24-.32.42-.42.18-.1.38-.15.61-.15s.43.05.6.15c.17.1.31.24.41.42.1.18.15.39.15.64,0,.02,0,.04,0,.06,0,.02,0,.05,0,.07h-2v-.31h1.78l-.17.11c0-.15-.03-.29-.09-.4-.07-.12-.15-.21-.27-.28-.11-.07-.25-.1-.4-.1s-.28.03-.4.1-.21.16-.27.28c-.07.12-.1.26-.1.41v.07c0,.16.04.3.11.42.07.12.17.22.3.29.13.07.28.1.45.1.14,0,.27-.02.38-.07.11-.05.21-.12.3-.21l.24.28c-.11.12-.24.22-.4.28-.16.07-.34.1-.53.1Z"/>
    <path class="cls-1" d="M34.62,19.59c-.24,0-.45-.05-.64-.16-.19-.1-.34-.25-.44-.43-.11-.18-.16-.39-.16-.62s.05-.44.16-.62c.11-.18.25-.32.44-.42.19-.1.4-.15.64-.15.21,0,.4.04.57.13s.3.21.39.38l-.32.21c-.08-.12-.17-.2-.28-.26-.11-.05-.23-.08-.36-.08-.15,0-.29.03-.41.1-.12.07-.22.16-.29.29-.07.12-.11.27-.11.44s.04.32.11.44c.07.12.17.22.29.29.12.07.26.1.41.1.13,0,.25-.03.36-.08.11-.05.21-.14.28-.26l.32.2c-.09.16-.22.29-.39.38-.17.09-.36.13-.57.13Z"/>
    <path class="cls-1" d="M36.14,19.56v-3.3h.43v1.58l-.08-.17c.08-.15.2-.27.36-.36.16-.09.35-.13.56-.13.19,0,.36.04.51.11.15.07.26.19.34.34.08.15.12.34.12.57v1.36h-.43v-1.31c0-.23-.06-.4-.17-.52-.11-.12-.27-.17-.47-.17-.15,0-.28.03-.4.09-.11.06-.2.15-.26.26-.06.12-.09.26-.09.43v1.21h-.43Z"/>
    <path class="cls-1" d="M41.35,19.6c-.24,0-.46-.04-.68-.11-.22-.07-.39-.17-.51-.28l.16-.35c.12.1.27.19.45.26.18.07.37.1.57.1.18,0,.33-.02.44-.06.11-.04.2-.1.25-.17.05-.07.08-.15.08-.25,0-.11-.03-.19-.1-.26-.07-.07-.16-.12-.27-.16-.11-.04-.23-.07-.37-.1-.13-.03-.27-.06-.4-.1-.13-.04-.26-.09-.37-.15-.11-.06-.2-.15-.27-.25-.07-.11-.1-.24-.1-.41s.04-.31.13-.44c.08-.13.21-.24.39-.32.18-.08.4-.12.67-.12.18,0,.36.02.54.07.18.05.33.12.46.2l-.15.36c-.13-.09-.27-.15-.42-.19-.15-.04-.29-.06-.43-.06-.17,0-.32.02-.43.07-.11.04-.19.1-.25.18-.05.07-.08.16-.08.25,0,.11.03.2.1.26.07.07.16.12.27.16.11.04.23.07.37.1s.27.07.4.1c.13.04.26.09.37.15.11.06.2.15.27.25.07.1.1.24.1.4s-.04.3-.13.44c-.09.13-.22.24-.4.32-.18.08-.41.12-.68.12Z"/>
    <path class="cls-1" d="M44.15,19.59c-.23,0-.44-.05-.63-.16-.19-.1-.33-.25-.44-.43-.11-.18-.16-.39-.16-.62s.05-.44.16-.62c.11-.18.25-.32.44-.42.18-.1.39-.16.63-.16s.44.05.63.15c.19.1.33.24.44.42.11.18.16.39.16.62s-.05.44-.16.62c-.11.18-.25.32-.44.43-.19.1-.39.16-.63.16ZM44.15,19.22c.15,0,.29-.03.41-.1.12-.07.21-.17.28-.29.07-.13.1-.27.1-.44s-.03-.31-.1-.44c-.07-.12-.16-.22-.28-.29-.12-.07-.26-.1-.41-.1s-.29.03-.4.1c-.12.07-.21.16-.28.29-.07.12-.11.27-.11.44s.04.31.11.44c.07.13.17.22.28.29.12.07.25.1.4.1Z"/>
    <path class="cls-1" d="M45.97,19.56v-3.3h.43v3.3h-.43Z"/>
    <path class="cls-1" d="M48.21,19.59c-.2,0-.38-.04-.53-.11-.15-.07-.27-.19-.36-.34-.08-.15-.13-.34-.13-.58v-1.36h.43v1.31c0,.23.06.4.17.52s.27.17.47.17c.15,0,.28-.03.39-.09.11-.06.19-.15.25-.27.06-.12.09-.26.09-.42v-1.22h.43v2.35h-.4v-.64l.07.17c-.08.16-.19.28-.35.36-.15.09-.33.13-.52.13Z"/>
    <path class="cls-1" d="M49.9,17.56v-.35h1.5v.35h-1.5ZM51.05,19.59c-.24,0-.42-.06-.55-.19-.13-.13-.2-.31-.2-.55v-2.16h.43v2.14c0,.13.03.23.1.29.06.07.15.1.27.1.13,0,.24-.04.33-.11l.13.31c-.07.06-.14.1-.23.12-.09.03-.18.04-.28.04Z"/>
    <path class="cls-1" d="M52.3,16.76c-.08,0-.15-.03-.21-.08-.05-.05-.08-.12-.08-.2s.03-.15.08-.2c.05-.05.12-.08.21-.08s.15.03.21.08c.05.05.08.12.08.19s-.03.15-.08.2c-.05.05-.12.08-.21.08ZM52.09,19.56v-2.35h.43v2.35h-.43Z"/>
    <path class="cls-1" d="M54.34,19.59c-.23,0-.44-.05-.63-.16-.19-.1-.33-.25-.44-.43-.11-.18-.16-.39-.16-.62s.05-.44.16-.62c.11-.18.25-.32.44-.42.18-.1.39-.16.63-.16s.44.05.63.15c.19.1.33.24.44.42.11.18.16.39.16.62s-.05.44-.16.62c-.11.18-.25.32-.44.43-.19.1-.39.16-.63.16ZM54.34,19.22c.15,0,.29-.03.41-.1.12-.07.21-.17.28-.29.07-.13.1-.27.1-.44s-.03-.31-.1-.44c-.07-.12-.16-.22-.28-.29-.12-.07-.26-.1-.41-.1s-.29.03-.4.1c-.12.07-.21.16-.28.29-.07.12-.11.27-.11.44s.04.31.11.44c.07.13.17.22.28.29.12.07.25.1.4.1Z"/>
    <path class="cls-1" d="M56.17,19.56v-2.35h.41v.64l-.07-.17c.08-.15.2-.27.36-.36.16-.09.35-.13.56-.13.19,0,.36.04.51.11.15.07.26.19.34.34.08.15.12.34.12.57v1.36h-.43v-1.31c0-.23-.06-.4-.17-.52-.11-.12-.27-.17-.47-.17-.15,0-.28.03-.4.09-.11.06-.2.15-.26.26-.06.12-.09.26-.09.43v1.21h-.43Z"/>
    <path class="cls-1" d="M59.88,19.59c-.2,0-.38-.03-.56-.08-.18-.05-.31-.12-.42-.2l.18-.34c.1.07.23.13.37.17.15.05.3.07.45.07.2,0,.34-.03.43-.08.09-.06.13-.13.13-.24,0-.07-.03-.13-.08-.17-.05-.04-.12-.07-.21-.09-.09-.02-.18-.04-.29-.06-.11-.02-.21-.04-.32-.06-.11-.03-.2-.06-.29-.11-.09-.05-.16-.11-.21-.19-.05-.08-.08-.19-.08-.33s.04-.27.12-.37c.08-.11.19-.19.34-.25.15-.06.32-.09.52-.09.15,0,.31.02.47.06.16.04.29.09.39.16l-.18.34c-.11-.07-.22-.12-.33-.15-.12-.03-.23-.04-.35-.04-.19,0-.33.03-.42.09-.09.06-.14.14-.14.23,0,.08.03.14.08.18.05.04.13.08.21.1.09.02.18.04.29.06.11.02.21.04.32.06.11.03.2.06.29.1.09.04.16.11.21.19.05.08.08.19.08.32,0,.14-.04.27-.12.37-.08.1-.2.18-.35.24-.15.06-.33.09-.54.09Z"/>
  </g>
</svg>