<?xml version="1.0" encoding="UTF-8"?>
<svg id="Capa_1" data-name="Capa 1" xmlns="http://www.w3.org/2000/svg" viewBox="0 0 75.98 21.57">
  <defs>
    <style>
      .cls-1 {
        fill: #010101;
      }
    </style>
  </defs>
  <path class="cls-1" d="M8,.33v.18c-.27.04-.47.12-.61.23-.2.16-.37.41-.52.75l-2.63,5.76h-.21L1.2,1.42c-.14-.3-.25-.48-.31-.55-.09-.1-.21-.18-.34-.24-.14-.06-.32-.1-.55-.11v-.18h3.09v.18c-.35.03-.58.08-.68.16-.1.08-.16.17-.16.29,0,.17.09.43.26.78l1.92,3.97,1.78-3.92c.17-.39.26-.65.26-.8,0-.1-.05-.19-.16-.28-.11-.09-.29-.15-.55-.19-.02,0-.05,0-.09-.01v-.18h2.33Z"/>
  <path class="cls-1" d="M9.57,2.39v3.67c0,.29.02.48.07.57s.12.17.21.21c.09.05.26.07.5.07v.18h-2.48v-.18c.25,0,.42-.02.5-.06.09-.04.15-.11.2-.21.05-.1.08-.29.08-.57v-1.76c0-.5-.02-.82-.05-.96-.03-.11-.07-.18-.12-.22-.06-.04-.13-.06-.23-.06-.1,0-.23.02-.38.07l-.08-.18,1.54-.56h.25ZM9.11,0c.16,0,.29.05.4.15.11.1.16.22.16.36s-.05.26-.16.36c-.11.1-.24.15-.4.15s-.29-.05-.4-.15c-.11-.1-.17-.22-.17-.36s.05-.26.16-.36c.11-.1.24-.15.4-.15Z"/>
  <path class="cls-1" d="M10.71,2.53h2.4v.18h-.16c-.14,0-.26.03-.33.09-.08.06-.11.15-.11.25,0,.12.04.25.12.41l1.19,2.53,1.19-2.62c.09-.19.13-.33.13-.42,0-.05-.01-.08-.04-.11-.04-.05-.09-.08-.16-.1-.06-.02-.19-.03-.38-.03v-.18h1.67v.18c-.19.01-.33.05-.4.1-.13.1-.25.27-.35.5l-1.81,3.92h-.23l-1.82-3.86c-.08-.18-.16-.31-.23-.39-.07-.08-.17-.14-.28-.2-.06-.03-.19-.06-.37-.08v-.18Z"/>
  <path class="cls-1" d="M18.44,2.39v3.67c0,.29.02.48.07.57s.12.17.21.21c.09.05.26.07.5.07v.18h-2.48v-.18c.25,0,.42-.02.5-.06.09-.04.15-.11.2-.21.05-.1.08-.29.08-.57v-1.76c0-.5-.02-.82-.05-.96-.03-.11-.07-.18-.12-.22-.06-.04-.13-.06-.23-.06-.1,0-.23.02-.38.07l-.08-.18,1.54-.56h.25ZM17.98,0c.16,0,.29.05.4.15.11.1.16.22.16.36s-.05.26-.16.36c-.11.1-.24.15-.4.15s-.29-.05-.4-.15c-.11-.1-.17-.22-.17-.36s.05-.26.16-.36c.11-.1.24-.15.4-.15Z"/>
  <path class="cls-1" d="M22.74,6.44c-.52.36-.85.57-.99.63-.2.08-.41.12-.64.12-.35,0-.64-.11-.87-.32-.23-.22-.34-.5-.34-.85,0-.22.06-.42.17-.58.15-.23.42-.44.79-.64.38-.2,1-.44,1.88-.73v-.18c0-.46-.08-.77-.24-.94-.16-.17-.4-.25-.7-.25-.23,0-.42.06-.56.17-.14.11-.21.24-.21.39v.29c.01.15-.03.27-.12.35-.09.08-.2.12-.34.12s-.25-.04-.34-.13-.13-.2-.13-.35c0-.29.16-.55.49-.79.33-.24.79-.36,1.38-.36.45,0,.82.07,1.11.2.22.1.38.26.48.48.07.14.1.44.1.88v1.55c0,.44,0,.7.03.8.02.1.05.16.09.2.04.03.09.05.15.05.06,0,.11-.01.16-.03.08-.04.23-.16.45-.36v.28c-.42.5-.81.75-1.19.75-.18,0-.33-.06-.43-.17-.11-.11-.16-.31-.17-.58ZM22.74,6.11v-1.74c-.56.2-.92.34-1.09.42-.29.15-.5.3-.63.46-.13.16-.19.33-.19.52,0,.24.08.44.24.6.16.16.34.24.55.24.28,0,.65-.17,1.11-.5Z"/>
  <path class="cls-1" d="M26.4,3.36c.6-.65,1.17-.97,1.71-.97.28,0,.52.06.72.19s.36.33.48.62c.08.2.12.51.12.92v1.95c0,.29.03.49.08.59.04.08.11.15.2.19.09.05.26.07.5.07v.18h-2.52v-.18h.11c.24,0,.4-.03.5-.1.09-.06.16-.16.2-.29.01-.05.02-.21.02-.47v-1.87c0-.42-.06-.72-.18-.91-.12-.19-.32-.28-.61-.28-.44,0-.88.22-1.32.65v2.41c0,.31.02.5.06.57.05.1.12.17.21.21.09.04.28.07.55.07v.18h-2.52v-.18h.11c.26,0,.44-.06.53-.18.09-.12.14-.34.14-.68v-1.7c0-.55-.01-.88-.04-1-.03-.12-.07-.2-.13-.24-.06-.04-.13-.06-.23-.06-.1,0-.23.02-.37.07l-.08-.18,1.54-.56h.24v.97Z"/>
  <path class="cls-1" d="M33.5,6.44c-.52.36-.85.57-.99.63-.2.08-.41.12-.64.12-.35,0-.64-.11-.87-.32-.23-.22-.34-.5-.34-.85,0-.22.06-.42.17-.58.15-.23.42-.44.79-.64.38-.2,1-.44,1.88-.73v-.18c0-.46-.08-.77-.24-.94-.16-.17-.4-.25-.7-.25-.23,0-.42.06-.56.17-.14.11-.21.24-.21.39v.29c.01.15-.03.27-.12.35-.09.08-.2.12-.34.12s-.25-.04-.34-.13-.13-.2-.13-.35c0-.29.16-.55.49-.79.33-.24.79-.36,1.38-.36.45,0,.82.07,1.11.2.22.1.38.26.48.48.07.14.1.44.1.88v1.55c0,.44,0,.7.03.8.02.1.05.16.09.2.04.03.09.05.15.05.06,0,.11-.01.16-.03.08-.04.23-.16.45-.36v.28c-.42.5-.81.75-1.19.75-.18,0-.33-.06-.43-.17-.11-.11-.16-.31-.17-.58ZM33.5,6.11v-1.74c-.56.2-.92.34-1.09.42-.29.15-.5.3-.63.46-.13.16-.19.33-.19.52,0,.24.08.44.24.6.16.16.34.24.55.24.28,0,.65-.17,1.11-.5Z"/>
  <path class="cls-1" d="M43.4.17v2.34h-.21c-.07-.45-.19-.81-.36-1.07-.17-.27-.42-.48-.74-.63-.32-.16-.65-.23-.99-.23-.39,0-.71.11-.96.32s-.38.45-.38.72c0,.21.08.39.24.56.23.25.78.58,1.64,1,.71.34,1.19.6,1.45.78.26.18.46.4.6.64.14.25.21.5.21.77,0,.51-.22.95-.67,1.33s-1.01.56-1.71.56c-.22,0-.42-.01-.62-.04-.12-.02-.35-.08-.72-.18s-.59-.16-.69-.16-.17.02-.22.07c-.05.05-.09.15-.12.31h-.21v-2.32h.21c.1.49.23.85.39,1.09.16.24.41.44.75.6.34.16.7.24,1.11.24.46,0,.83-.11,1.1-.33s.4-.48.4-.78c0-.17-.05-.33-.15-.5-.1-.17-.26-.33-.48-.47-.14-.1-.54-.31-1.19-.64-.65-.32-1.11-.58-1.38-.78-.27-.19-.48-.41-.62-.64-.14-.23-.21-.49-.21-.77,0-.49.21-.9.62-1.26.42-.35.94-.53,1.59-.53.4,0,.83.09,1.28.26.21.08.35.12.44.12.1,0,.18-.03.24-.08.06-.05.11-.16.15-.31h.21Z"/>
  <path class="cls-1" d="M47.76,6.44c-.52.36-.85.57-.99.63-.2.08-.41.12-.64.12-.35,0-.64-.11-.87-.32-.23-.22-.34-.5-.34-.85,0-.22.06-.42.17-.58.15-.23.42-.44.79-.64.38-.2,1-.44,1.88-.73v-.18c0-.46-.08-.77-.24-.94-.16-.17-.4-.25-.7-.25-.23,0-.42.06-.56.17-.14.11-.21.24-.21.39v.29c.01.15-.03.27-.12.35-.09.08-.2.12-.34.12s-.25-.04-.34-.13c-.09-.09-.13-.2-.13-.35,0-.29.16-.55.49-.79s.79-.36,1.38-.36c.45,0,.82.07,1.11.2.22.1.38.26.48.48.07.14.1.44.1.88v1.55c0,.44,0,.7.03.8.02.1.05.16.09.2.04.03.09.05.15.05.06,0,.11-.01.16-.03.08-.04.23-.16.45-.36v.28c-.42.5-.81.75-1.19.75-.18,0-.33-.06-.43-.17s-.16-.31-.17-.58ZM47.76,6.11v-1.74c-.56.2-.92.34-1.09.42-.29.15-.5.3-.63.46-.13.16-.19.33-.19.52,0,.24.08.44.24.6.16.16.34.24.55.24.28,0,.65-.17,1.11-.5ZM48.31.16l-1.64,1.72h-.19l.58-1.72h1.25Z"/>
  <path class="cls-1" d="M51.42,3.36c.6-.65,1.17-.97,1.71-.97.28,0,.52.06.72.19.2.12.36.33.48.62.08.2.12.51.12.92v1.95c0,.29.03.49.08.59.04.08.11.15.2.19.09.05.26.07.5.07v.18h-2.52v-.18h.11c.24,0,.4-.03.5-.1.09-.06.16-.16.2-.29.01-.05.02-.21.02-.47v-1.87c0-.42-.06-.72-.18-.91-.12-.19-.32-.28-.61-.28-.44,0-.88.22-1.32.65v2.41c0,.31.02.5.06.57.05.1.12.17.21.21.09.04.28.07.55.07v.18h-2.52v-.18h.11c.26,0,.44-.06.53-.18.09-.12.14-.34.14-.68v-1.7c0-.55-.01-.88-.04-1-.03-.12-.07-.2-.13-.24-.06-.04-.13-.06-.23-.06-.1,0-.23.02-.37.07l-.08-.18,1.54-.56h.24v.97Z"/>
  <path class="cls-1" d="M59.97,5.36c-.14.6-.41,1.07-.81,1.39-.4.32-.84.49-1.33.49-.58,0-1.08-.22-1.51-.65-.43-.44-.65-1.02-.65-1.77s.24-1.3.72-1.75,1.05-.67,1.72-.67c.5,0,.91.12,1.24.36.32.24.48.49.48.74,0,.13-.05.23-.14.31-.09.08-.22.12-.38.12-.22,0-.38-.06-.5-.19-.06-.07-.11-.2-.13-.4-.02-.2-.1-.35-.23-.45-.13-.1-.31-.15-.54-.15-.37,0-.67.12-.9.37-.3.33-.45.76-.45,1.29s.15,1.03.45,1.45c.3.42.7.63,1.21.63.36,0,.69-.11.98-.33.2-.15.4-.43.6-.83l.16.07Z"/>
  <path class="cls-1" d="M62.19,0v3.34c.41-.41.74-.67.98-.78.24-.11.48-.17.72-.17.29,0,.54.07.75.21s.36.37.46.67c.07.21.11.6.11,1.17v1.62c0,.29.03.49.08.59.04.08.1.14.19.19.09.05.25.07.49.07v.18h-2.51v-.18h.12c.24,0,.4-.03.5-.1.09-.06.16-.16.19-.29.01-.05.02-.21.02-.47v-1.62c0-.5-.03-.83-.09-.98-.06-.16-.15-.27-.28-.35-.13-.08-.28-.12-.46-.12s-.37.04-.57.13c-.2.09-.43.26-.71.52v2.42c0,.31.02.51.06.58.04.08.11.14.22.19.11.05.29.08.55.08v.18h-2.53v-.18c.23,0,.4-.03.53-.09.07-.03.13-.1.18-.19.04-.09.07-.28.07-.57V1.93c0-.52-.01-.84-.04-.96s-.07-.2-.13-.24c-.06-.04-.13-.06-.23-.06-.08,0-.2.03-.38.08l-.08-.17,1.53-.56h.26Z"/>
  <path class="cls-1" d="M67.26,4.25c0,.68.18,1.21.55,1.6.37.39.81.58,1.31.58.33,0,.62-.08.87-.25.25-.16.45-.45.62-.85l.17.1c-.08.46-.3.87-.68,1.25-.38.37-.84.56-1.41.56-.61,0-1.14-.21-1.57-.64-.44-.43-.65-1-.65-1.72,0-.78.22-1.39.67-1.83.45-.44,1.01-.66,1.68-.66.57,0,1.04.17,1.41.51s.55.79.55,1.36h-3.53ZM67.26,3.96h2.36c-.02-.29-.06-.5-.12-.62-.09-.19-.23-.33-.41-.44s-.38-.16-.58-.16c-.31,0-.58.11-.83.32-.24.21-.39.51-.43.9Z"/>
  <path class="cls-1" d="M75.89,5.7l-.06,1.4h-4.5v-.18l3.39-4.04h-1.67c-.36,0-.6.02-.71.06-.11.04-.2.12-.27.24-.1.17-.16.37-.17.62h-.22l.03-1.27h4.28v.18l-3.42,4.05h1.86c.39,0,.65-.03.79-.09.14-.06.25-.16.34-.31.06-.11.11-.33.15-.67h.19Z"/>
  <path class="cls-1" d="M21.24,17.1h-2.92l-.51,1.07c-.13.26-.19.46-.19.59,0,.1.05.19.16.27.11.08.35.13.71.15v.18h-2.38v-.18c.32-.05.52-.11.61-.19.19-.16.4-.48.63-.97l2.66-5.57h.19l2.63,5.63c.21.45.4.75.58.88.17.13.41.21.72.23v.18h-2.98v-.18c.3-.01.5-.06.61-.13.11-.08.16-.17.16-.28,0-.15-.07-.38-.22-.69l-.46-.97ZM21.08,16.73l-1.28-2.74-1.31,2.74h2.6Z"/>
  <path class="cls-1" d="M26.01,15.58c.49-.62,1.03-.92,1.6-.92.52,0,.98.2,1.37.6.39.4.58.95.58,1.64,0,.81-.3,1.47-.9,1.96-.52.43-1.09.64-1.73.64-.3,0-.6-.05-.9-.14s-.62-.24-.94-.43v-4.74c0-.52-.01-.84-.04-.96s-.07-.2-.13-.24c-.06-.04-.13-.06-.22-.06-.1,0-.23.03-.39.08l-.08-.17,1.53-.56h.25v3.31ZM26.01,15.9v2.74c.19.17.39.29.59.38.2.08.41.13.62.13.34,0,.65-.17.94-.5.29-.33.44-.82.44-1.45,0-.59-.15-1.04-.44-1.35-.29-.31-.62-.47-.99-.47-.2,0-.39.04-.59.13-.15.07-.34.2-.57.4Z"/>
  <path class="cls-1" d="M32.81,14.66c.77,0,1.39.26,1.86.79.4.45.6.97.6,1.55,0,.41-.11.82-.33,1.24-.22.42-.52.74-.9.95-.38.21-.81.32-1.28.32-.77,0-1.38-.27-1.83-.82-.38-.46-.57-.98-.57-1.56,0-.42.12-.84.35-1.25.23-.41.54-.72.92-.92.38-.2.78-.3,1.2-.3ZM32.64,14.98c-.2,0-.39.05-.59.16-.2.1-.36.29-.48.55-.12.26-.18.6-.18,1.01,0,.67.15,1.24.44,1.72s.68.72,1.17.72c.36,0,.66-.13.89-.4s.35-.72.35-1.37c0-.81-.19-1.45-.58-1.92-.26-.32-.6-.48-1.01-.48Z"/>
  <path class="cls-1" d="M37.38,17.7c-.31-.14-.55-.33-.72-.57-.17-.24-.25-.52-.25-.81,0-.45.19-.84.57-1.17.38-.33.87-.49,1.46-.49.49,0,.91.11,1.26.32h1.08c.16,0,.25,0,.28.01.03,0,.04.02.06.04.02.03.03.08.03.16,0,.09,0,.15-.03.18-.01.02-.03.03-.06.04-.03,0-.12.01-.28.01h-.66c.21.24.31.55.31.92,0,.43-.18.79-.55,1.09-.36.3-.85.45-1.46.45-.25,0-.51-.03-.77-.1-.16.13-.27.24-.33.33-.06.09-.09.18-.09.24,0,.06.03.11.09.16.06.05.18.09.36.11.1.01.36.02.78.03.76.02,1.26.04,1.49.07.35.04.62.16.83.34.21.19.31.42.31.69,0,.38-.2.73-.59,1.06-.58.49-1.33.73-2.27.73-.72,0-1.32-.14-1.82-.43-.28-.17-.42-.34-.42-.52,0-.08.02-.16.06-.24.06-.12.19-.29.39-.51.03-.03.22-.21.57-.54-.19-.1-.33-.2-.41-.28s-.12-.17-.12-.28c0-.12.05-.25.16-.41.11-.16.35-.38.73-.66ZM37.33,19.37c-.17.17-.31.33-.4.47-.09.15-.13.28-.13.4,0,.16.11.3.32.42.37.21.91.31,1.61.31s1.16-.11,1.48-.32c.32-.21.48-.44.48-.68,0-.17-.09-.3-.28-.37-.19-.07-.58-.12-1.15-.13-.84-.02-1.48-.06-1.93-.11ZM38.35,14.9c-.27,0-.5.1-.69.29-.19.2-.28.5-.28.9,0,.53.13.93.38,1.22.19.22.44.33.74.33s.51-.09.7-.28c.18-.19.27-.49.27-.89,0-.53-.13-.94-.38-1.24-.19-.22-.43-.33-.73-.33Z"/>
  <path class="cls-1" d="M44.61,18.71c-.52.36-.85.57-.99.63-.2.08-.41.12-.64.12-.35,0-.64-.11-.87-.32s-.34-.5-.34-.85c0-.22.06-.42.17-.58.15-.23.42-.44.79-.64.38-.2,1-.44,1.88-.73v-.18c0-.46-.08-.77-.24-.94-.16-.17-.4-.25-.7-.25-.23,0-.42.06-.56.17-.14.11-.21.24-.21.39v.29c.01.15-.03.27-.12.35-.09.08-.2.12-.34.12s-.25-.04-.34-.13c-.09-.09-.13-.2-.13-.35,0-.29.16-.55.49-.79.33-.24.79-.36,1.38-.36.45,0,.82.07,1.11.2.22.1.38.26.48.48.07.14.1.44.1.88v1.55c0,.44,0,.7.03.8.02.1.05.16.09.2.04.03.09.05.15.05.06,0,.11-.01.16-.04.08-.04.23-.16.45-.36v.28c-.42.5-.81.75-1.19.75-.18,0-.33-.06-.43-.17-.11-.11-.16-.31-.17-.58ZM44.61,18.38v-1.74c-.56.2-.92.34-1.09.42-.29.15-.5.3-.63.46-.13.16-.19.33-.19.52,0,.24.08.44.24.6.16.16.34.24.55.24.28,0,.65-.17,1.11-.5Z"/>
  <path class="cls-1" d="M50.39,18.85c-.25.23-.49.4-.73.5-.24.1-.49.15-.77.15-.56,0-1.04-.21-1.46-.63-.42-.42-.62-.95-.62-1.61s.23-1.26.69-1.8,1.05-.82,1.78-.82c.45,0,.82.13,1.11.38v-.84c0-.52-.01-.84-.04-.96s-.07-.2-.13-.24c-.06-.04-.13-.06-.22-.06-.1,0-.22.03-.38.08l-.07-.17,1.52-.56h.25v5.29c0,.54.01.86.04.98.03.12.07.2.13.25.06.05.13.07.21.07.1,0,.23-.03.4-.08l.06.17-1.51.56h-.26v-.65ZM50.39,18.5v-2.36c-.02-.23-.09-.43-.2-.62-.11-.19-.26-.33-.44-.42s-.36-.14-.54-.14c-.33,0-.62.13-.87.39-.34.35-.51.85-.51,1.52s.16,1.19.49,1.55.69.54,1.09.54c.34,0,.66-.15.98-.45Z"/>
  <path class="cls-1" d="M55.38,18.71c-.52.36-.85.57-.99.63-.2.08-.41.12-.64.12-.35,0-.64-.11-.87-.32s-.34-.5-.34-.85c0-.22.06-.42.17-.58.15-.23.42-.44.79-.64.38-.2,1-.44,1.88-.73v-.18c0-.46-.08-.77-.24-.94-.16-.17-.4-.25-.7-.25-.23,0-.42.06-.56.17-.14.11-.21.24-.21.39v.29c.01.15-.03.27-.12.35-.09.08-.2.12-.34.12s-.25-.04-.34-.13c-.09-.09-.13-.2-.13-.35,0-.29.16-.55.49-.79.33-.24.79-.36,1.38-.36.45,0,.82.07,1.11.2.22.1.38.26.48.48.07.14.1.44.1.88v1.55c0,.44,0,.7.03.8.02.1.05.16.09.2.04.03.09.05.15.05.06,0,.11-.01.16-.04.08-.04.23-.16.45-.36v.28c-.42.5-.81.75-1.19.75-.18,0-.33-.06-.43-.17-.11-.11-.16-.31-.17-.58ZM55.38,18.38v-1.74c-.56.2-.92.34-1.09.42-.29.15-.5.3-.63.46-.13.16-.19.33-.19.52,0,.24.08.44.24.6.16.16.34.24.55.24.28,0,.65-.17,1.11-.5Z"/>
  <path class="cls-1" d="M58.62,18.4c.17,0,.32.05.44.16.12.11.18.24.18.39s-.06.28-.18.39c-.12.11-.27.16-.44.16s-.32-.05-.44-.16c-.12-.11-.18-.24-.18-.39s.06-.29.18-.39c.12-.11.27-.16.44-.16Z"/>
</svg>